<?xml version="1.0" encoding="UTF-8"?>
<svg version="1.1" xmlns="http://www.w3.org/2000/svg" width="48" height="48">
<path d="M0 0 C2.38564077 0.57584432 4.66682784 1.22227595 7 2 C9.01829161 2.11904875 11.04073771 2.17521712 13.0625 2.1875 C14.12597656 2.20167969 15.18945312 2.21585937 16.28515625 2.23046875 C19.14861681 2.28122312 19.14861681 2.28122312 21 0 C21.99 0 22.98 0 24 0 C23.7525 0.886875 23.505 1.77375 23.25 2.6875 C22.67792642 6.07655471 22.67792642 6.07655471 24.6875 8.875 C26.96745399 11.45108353 26.96745399 11.45108353 31 11 C31 11.99 31 12.98 31 14 C30.01 14.33 29.02 14.66 28 15 C27.67 17.31 27.34 19.62 27 22 C28.98 22 30.96 22 33 22 C33 22.66 33 23.32 33 24 C31.02 24 29.04 24 27 24 C26.67 25.98 26.34 27.96 26 30 C27.32 30.66 28.64 31.32 30 32 C30 32.99 30 33.98 30 35 C29.113125 34.731875 28.22625 34.46375 27.3125 34.1875 C23.81386429 33.60434518 23.81386429 33.60434518 21.25 36.375 C20.5075 37.24125 19.765 38.1075 19 39 C15.29460158 40.85269921 11.04376687 40.46444489 7 40 C3.88673375 38.68882399 1.54695424 37.09390848 0 34 C-2.97 34.495 -2.97 34.495 -6 35 C-6 34.01 -6 33.02 -6 32 C-5.01 31.34 -4.02 30.68 -3 30 C-2.7497843 26.91634129 -2.7497843 26.91634129 -3 24 C-4.98 24 -6.96 24 -9 24 C-9 23.34 -9 22.68 -9 22 C-7.02 22 -5.04 22 -3 22 C-3.33 19.69 -3.66 17.38 -4 15 C-4.99 14.67 -5.98 14.34 -7 14 C-7 13.01 -7 12.02 -7 11 C-5.8553125 11.1546875 -5.8553125 11.1546875 -4.6875 11.3125 C-1.82918484 11.28357397 -1.82918484 11.28357397 -0.125 8.875 C1.21686761 5.44578278 0.90077361 3.52120592 0 0 Z " fill="#E88604" transform="translate(12,4)"/>
<path d="M0 0 C2.38564077 0.57584432 4.66682784 1.22227595 7 2 C9.01829161 2.11904875 11.04073771 2.17521712 13.0625 2.1875 C14.12597656 2.20167969 15.18945312 2.21585937 16.28515625 2.23046875 C19.14861681 2.28122312 19.14861681 2.28122312 21 0 C21.99 0 22.98 0 24 0 C23.7525 0.886875 23.505 1.77375 23.25 2.6875 C22.67792642 6.07655471 22.67792642 6.07655471 24.6875 8.875 C26.96745399 11.45108353 26.96745399 11.45108353 31 11 C31 11.99 31 12.98 31 14 C30.01 14.33 29.02 14.66 28 15 C27.67 15.66 27.34 16.32 27 17 C26.34 17 25.68 17 25 17 C24.67 15.68 24.34 14.36 24 13 C23.34926514 13.00523682 22.69853027 13.01047363 22.02807617 13.01586914 C19.08122726 13.03664938 16.13439377 13.0496635 13.1875 13.0625 C11.65125977 13.07506836 11.65125977 13.07506836 10.08398438 13.08789062 C8.60961914 13.09272461 8.60961914 13.09272461 7.10546875 13.09765625 C6.19949951 13.10289307 5.29353027 13.10812988 4.36010742 13.11352539 C2 13 2 13 -1 12 C-1.33 13.65 -1.66 15.3 -2 17 C-4.5 15.6875 -4.5 15.6875 -7 14 C-7 13.01 -7 12.02 -7 11 C-5.8553125 11.1546875 -5.8553125 11.1546875 -4.6875 11.3125 C-1.82918484 11.28357397 -1.82918484 11.28357397 -0.125 8.875 C1.21686761 5.44578278 0.90077361 3.52120592 0 0 Z " fill="#504A31" transform="translate(12,4)"/>
<path d="M0 0 C8.25 0 16.5 0 25 0 C25.33 1.65 25.66 3.3 26 5 C26.66 5 27.32 5 28 5 C28 6.32 28 7.64 28 9 C25.525 8.505 25.525 8.505 23 8 C23 8.66 23 9.32 23 10 C23.99 10.33 24.98 10.66 26 11 C23.75 13.5 23.75 13.5 21 16 C19.68 16 18.36 16 17 16 C17 14.68 17 13.36 17 12 C16.01 11.67 15.02 11.34 14 11 C13.67 9.02 13.34 7.04 13 5 C12.67 6.98 12.34 8.96 12 11 C11.67 10.01 11.34 9.02 11 8 C9.35 8.33 7.7 8.66 6 9 C5.67 9.99 5.34 10.98 5 12 C2 13 2 13 -1 12 C-2.01622308 6.81726228 -2.04723881 5.11809703 0 0 Z " fill="#F2AB04" transform="translate(11,16)"/>
<path d="M0 0 C3.63 0.66 7.26 1.32 11 2 C11 2.66 11 3.32 11 4 C9.02 4 7.04 4 5 4 C4.67 5.98 4.34 7.96 4 10 C5.32 10.66 6.64 11.32 8 12 C8 12.99 8 13.98 8 15 C7.113125 14.731875 6.22625 14.46375 5.3125 14.1875 C1.81386429 13.60434518 1.81386429 13.60434518 -0.75 16.375 C-1.4925 17.24125 -2.235 18.1075 -3 19 C-5.52475462 20.26237731 -7.31200466 20.09856404 -10.125 20.0625 C-11.03507812 20.05347656 -11.94515625 20.04445313 -12.8828125 20.03515625 C-13.93082031 20.01775391 -13.93082031 20.01775391 -15 20 C-13.68 19.67 -12.36 19.34 -11 19 C-11.01160156 18.26394531 -11.02320313 17.52789062 -11.03515625 16.76953125 C-11.04417969 15.79371094 -11.05320312 14.81789063 -11.0625 13.8125 C-11.07410156 12.84957031 -11.08570313 11.88664062 -11.09765625 10.89453125 C-11.00486622 8.14423487 -10.62111685 5.67520409 -10 3 C-8.68 3.33 -7.36 3.66 -6 4 C-6 5.32 -6 6.64 -6 8 C-1.18877153 6.47444034 -1.18877153 6.47444034 2 3 C1.34 2.67 0.68 2.34 0 2 C0 1.34 0 0.68 0 0 Z " fill="#DD7005" transform="translate(34,24)"/>
<path d="M0 0 C2.38564077 0.57584432 4.66682784 1.22227595 7 2 C9.01829161 2.11904875 11.04073771 2.17521712 13.0625 2.1875 C14.12597656 2.20167969 15.18945312 2.21585937 16.28515625 2.23046875 C19.14861681 2.28122312 19.14861681 2.28122312 21 0 C21.99 0 22.98 0 24 0 C23.37215066 2.92996359 22.71202908 5.51755783 21 8 C15.90486107 9.79828433 9.09187325 9.69729108 4 8 C3.67 8.99 3.34 9.98 3 11 C2.01 10.67 1.02 10.34 0 10 C0.185625 9.0925 0.37125 8.185 0.5625 7.25 C0.95734621 4.31685676 0.94691572 2.7355343 0 0 Z " fill="#515552" transform="translate(12,4)"/>
<path d="M0 0 C2.38564077 0.57584432 4.66682784 1.22227595 7 2 C8.68693289 2.04374542 10.37546831 2.03975332 12.0625 2 C16.77840112 1.88920056 16.77840112 1.88920056 19 3 C19 3.99 19 4.98 19 6 C13.06 6.33 7.12 6.66 1 7 C0.67 4.69 0.34 2.38 0 0 Z " fill="#5D6364" transform="translate(12,4)"/>
<path d="M0 0 C3.3125 -0.3125 3.3125 -0.3125 7 0 C9.38164192 2.84260487 10 4.28405267 10 8 C10.99 8 11.98 8 13 8 C12.67 10.31 12.34 12.62 12 15 C11.443125 14.2265625 11.443125 14.2265625 10.875 13.4375 C8.96826848 11.63680017 8.96826848 11.63680017 5.8125 12.3125 C4.4203125 12.6528125 4.4203125 12.6528125 3 13 C3 12.01 3 11.02 3 10 C3.99 9.34 4.98 8.68 6 8 C6.2502157 4.91634129 6.2502157 4.91634129 6 2 C4.02 2 2.04 2 0 2 C0 1.34 0 0.68 0 0 Z " fill="#DC7B17" transform="translate(3,26)"/>
<path d="M0 0 C3.63 0.66 7.26 1.32 11 2 C11 2.66 11 3.32 11 4 C9.02 4 7.04 4 5 4 C5 5.32 5 6.64 5 8 C2.69 8.66 0.38 9.32 -2 10 C-1.43628586 6.73045798 -0.50037734 5.17424117 2 3 C1.34 2.67 0.68 2.34 0 2 C0 1.34 0 0.68 0 0 Z " fill="#F29006" transform="translate(34,24)"/>
<path d="M0 0 C6.93 0.33 13.86 0.66 21 1 C20.34 1.66 19.68 2.32 19 3 C15.375 2.625 15.375 2.625 12 2 C12 2.66 12 3.32 12 4 C7.45194365 4.17835515 4.1205746 3.99785435 0 2 C0 1.34 0 0.68 0 0 Z " fill="#F1BE13" transform="translate(11,16)"/>
<path d="M0 0 C0.99 0.66 1.98 1.32 3 2 C4.32 2 5.64 2 7 2 C7 2.99 7 3.98 7 5 C6.01 5.33 5.02 5.66 4 6 C3.67 6.66 3.34 7.32 3 8 C2.34 8 1.68 8 1 8 C0.67 6.68 0.34 5.36 0 4 C-2.64 4 -5.28 4 -8 4 C-5.33333333 2.66666667 -2.66666667 1.33333333 0 0 Z " fill="#A78F31" transform="translate(36,13)"/>
<path d="M0 0 C3.465 1.485 3.465 1.485 7 3 C3.98968256 3.93423645 3.13349732 4.04449911 0 3 C-0.33 4.65 -0.66 6.3 -1 8 C-3.5 6.6875 -3.5 6.6875 -6 5 C-6 4.01 -6 3.02 -6 2 C-4.35 2 -2.7 2 -1 2 C-0.67 1.34 -0.34 0.68 0 0 Z " fill="#A38D36" transform="translate(11,13)"/>
<path d="M0 0 C3.3125 -0.3125 3.3125 -0.3125 7 0 C8.9375 2.5 8.9375 2.5 10 5 C9.01 5.66 8.02 6.32 7 7 C6.67 5.35 6.34 3.7 6 2 C4.02 2 2.04 2 0 2 C0 1.34 0 0.68 0 0 Z " fill="#AB7528" transform="translate(3,26)"/>
<path d="M0 0 C3.63 0.66 7.26 1.32 11 2 C11 2.66 11 3.32 11 4 C9.741875 4.04125 8.48375 4.0825 7.1875 4.125 C6.47980469 4.14820313 5.77210937 4.17140625 5.04296875 4.1953125 C3 4 3 4 0 2 C0 1.34 0 0.68 0 0 Z " fill="#A67A2C" transform="translate(34,24)"/>
<path d="M0 0 C0.5775 0.165 1.155 0.33 1.75 0.5 C4.26664369 1.14462031 4.26664369 1.14462031 8 1 C7.67 1.99 7.34 2.98 7 4 C4 5 4 5 1 4 C0.3125 1.9375 0.3125 1.9375 0 0 Z " fill="#ECA204" transform="translate(9,24)"/>
<path d="M0 0 C3.3 0 6.6 0 10 0 C9.67 0.66 9.34 1.32 9 2 C6.71484375 2.4140625 6.71484375 2.4140625 3.9375 2.625 C3.01839844 2.69976562 2.09929688 2.77453125 1.15234375 2.8515625 C0.44207031 2.90054687 -0.26820312 2.94953125 -1 3 C-0.67 2.01 -0.34 1.02 0 0 Z " fill="#6A6C6E" transform="translate(19,6)"/>
<path d="M0 0 C0.66 1.32 1.32 2.64 2 4 C1 5 1 5 -2.0625 5.0625 C-3.5165625 5.0315625 -3.5165625 5.0315625 -5 5 C-4.67 3.68 -4.34 2.36 -4 1 C-2.68 0.67 -1.36 0.34 0 0 Z " fill="#4B4B38" transform="translate(34,10)"/>
<path d="M0 0 C1.875 0.3125 1.875 0.3125 4 1 C4.66 1.99 5.32 2.98 6 4 C4.125 4.625 4.125 4.625 2 5 C1.34 4.34 0.68 3.68 0 3 C0 2.01 0 1.02 0 0 Z " fill="#514A4A" transform="translate(37,34)"/>
<path d="M0 0 C0.99 0.33 1.98 0.66 3 1 C3.1875 3.3125 3.1875 3.3125 3 6 C2.01 6.99 1.02 7.98 0 9 C0 6.03 0 3.06 0 0 Z " fill="#E69002" transform="translate(25,27)"/>
<path d="M0 0 C-0.33 1.32 -0.66 2.64 -1 4 C-2.32 4.33 -3.64 4.66 -5 5 C-5 4.01 -5 3.02 -5 2 C-2 0 -2 0 0 0 Z " fill="#594E4A" transform="translate(11,34)"/>
<path d="M0 0 C1.875 0.3125 1.875 0.3125 4 1 C4.66 1.99 5.32 2.98 6 4 C4.125 4.625 4.125 4.625 2 5 C1.34 4.34 0.68 3.68 0 3 C0 2.01 0 1.02 0 0 Z " fill="#525354" transform="translate(12,4)"/>
<path d="M0 0 C0.33 0.66 0.66 1.32 1 2 C0.0625 4.125 0.0625 4.125 -1 6 C-1.33 5.01 -1.66 4.02 -2 3 C-2.66 3 -3.32 3 -4 3 C-4.33 3.66 -4.66 4.32 -5 5 C-5 4.01 -5 3.02 -5 2 C-3.35 1.34 -1.7 0.68 0 0 Z " fill="#DA7D1C" transform="translate(37,32)"/>
<path d="M0 0 C2.475 0.99 2.475 0.99 5 2 C5 3.32 5 4.64 5 6 C4.01 6 3.02 6 2 6 C1.34 4.02 0.68 2.04 0 0 Z " fill="#EC8F01" transform="translate(11,28)"/>
</svg>
